<mxfile host="app.diagrams.net" modified="2023-12-14T14:59:40.411Z" agent="Mozilla/5.0 (Windows NT 10.0; Win64; x64) AppleWebKit/537.36 (KHTML, like Gecko) Chrome/120.0.0.0 Safari/537.36" etag="oO0-gPk8W76P5KKyJ8rt" version="22.1.8" type="device">
  <diagram name="Page-1" id="2YBvvXClWsGukQMizWep">
    <mxGraphModel dx="1195" dy="622" grid="1" gridSize="10" guides="1" tooltips="1" connect="1" arrows="1" fold="1" page="1" pageScale="1" pageWidth="850" pageHeight="1100" math="0" shadow="0">
      <root>
        <mxCell id="0" />
        <mxCell id="1" parent="0" />
        <mxCell id="QFnC96fmeQrWTmHDwa4i-30" value="CKB platform" style="shape=umlLifeline;perimeter=lifelinePerimeter;whiteSpace=wrap;html=1;container=0;dropTarget=0;collapsible=0;recursiveResize=0;outlineConnect=0;portConstraint=eastwest;newEdgeStyle={&quot;edgeStyle&quot;:&quot;elbowEdgeStyle&quot;,&quot;elbow&quot;:&quot;vertical&quot;,&quot;curved&quot;:0,&quot;rounded&quot;:0};" parent="1" vertex="1">
          <mxGeometry x="570" y="370" width="100" height="500" as="geometry" />
        </mxCell>
        <mxCell id="QFnC96fmeQrWTmHDwa4i-31" value="" style="html=1;points=[];perimeter=orthogonalPerimeter;outlineConnect=0;targetShapes=umlLifeline;portConstraint=eastwest;newEdgeStyle={&quot;edgeStyle&quot;:&quot;elbowEdgeStyle&quot;,&quot;elbow&quot;:&quot;vertical&quot;,&quot;curved&quot;:0,&quot;rounded&quot;:0};" parent="QFnC96fmeQrWTmHDwa4i-30" vertex="1">
          <mxGeometry x="45" y="70" width="10" height="30" as="geometry" />
        </mxCell>
        <mxCell id="QFnC96fmeQrWTmHDwa4i-32" value="" style="html=1;points=[];perimeter=orthogonalPerimeter;outlineConnect=0;targetShapes=umlLifeline;portConstraint=eastwest;newEdgeStyle={&quot;edgeStyle&quot;:&quot;elbowEdgeStyle&quot;,&quot;elbow&quot;:&quot;vertical&quot;,&quot;curved&quot;:0,&quot;rounded&quot;:0};" parent="QFnC96fmeQrWTmHDwa4i-30" vertex="1">
          <mxGeometry x="45" y="260" width="10" height="220" as="geometry" />
        </mxCell>
        <mxCell id="QFnC96fmeQrWTmHDwa4i-33" value="" style="html=1;points=[[0,0,0,0,5],[0,1,0,0,-5],[1,0,0,0,5],[1,1,0,0,-5]];perimeter=orthogonalPerimeter;outlineConnect=0;targetShapes=umlLifeline;portConstraint=eastwest;newEdgeStyle={&quot;curved&quot;:0,&quot;rounded&quot;:0};" parent="QFnC96fmeQrWTmHDwa4i-30" vertex="1">
          <mxGeometry x="50" y="280" width="10" height="20" as="geometry" />
        </mxCell>
        <mxCell id="QFnC96fmeQrWTmHDwa4i-34" value="&lt;font style=&quot;font-size: 9px;&quot;&gt;&amp;nbsp;8 : validate&lt;/font&gt;&lt;font style=&quot;font-size: 9px;&quot;&gt;BattleData&lt;/font&gt;&lt;font style=&quot;font-size: 9px;&quot;&gt;()&lt;/font&gt;" style="html=1;align=left;spacingLeft=2;endArrow=block;rounded=0;edgeStyle=orthogonalEdgeStyle;curved=0;rounded=0;" parent="QFnC96fmeQrWTmHDwa4i-30" target="QFnC96fmeQrWTmHDwa4i-33" edge="1">
          <mxGeometry relative="1" as="geometry">
            <mxPoint x="55" y="260.0344827586208" as="sourcePoint" />
            <Array as="points">
              <mxPoint x="55" y="270" />
              <mxPoint x="80" y="270" />
              <mxPoint x="80" y="280" />
            </Array>
            <mxPoint x="55.000000000000114" y="240" as="targetPoint" />
          </mxGeometry>
        </mxCell>
        <mxCell id="QFnC96fmeQrWTmHDwa4i-35" value="&lt;font style=&quot;font-size: 9px;&quot;&gt;Educator&lt;/font&gt;" style="shape=umlActor;verticalLabelPosition=bottom;verticalAlign=top;html=1;outlineConnect=0;" parent="1" vertex="1">
          <mxGeometry x="410" y="370" width="20" height="40" as="geometry" />
        </mxCell>
        <mxCell id="QFnC96fmeQrWTmHDwa4i-36" value="" style="endArrow=none;dashed=1;html=1;rounded=0;" parent="1" source="QFnC96fmeQrWTmHDwa4i-38" edge="1">
          <mxGeometry width="50" height="50" relative="1" as="geometry">
            <mxPoint x="420" y="680" as="sourcePoint" />
            <mxPoint x="420" y="430" as="targetPoint" />
          </mxGeometry>
        </mxCell>
        <mxCell id="QFnC96fmeQrWTmHDwa4i-37" value="" style="endArrow=none;dashed=1;html=1;rounded=0;" parent="1" edge="1">
          <mxGeometry width="50" height="50" relative="1" as="geometry">
            <mxPoint x="420" y="860" as="sourcePoint" />
            <mxPoint x="420" y="869.9999999999998" as="targetPoint" />
          </mxGeometry>
        </mxCell>
        <mxCell id="QFnC96fmeQrWTmHDwa4i-38" value="" style="html=1;points=[];perimeter=orthogonalPerimeter;outlineConnect=0;targetShapes=umlLifeline;portConstraint=eastwest;newEdgeStyle={&quot;edgeStyle&quot;:&quot;elbowEdgeStyle&quot;,&quot;elbow&quot;:&quot;vertical&quot;,&quot;curved&quot;:0,&quot;rounded&quot;:0};" parent="1" vertex="1">
          <mxGeometry x="415" y="440" width="10" height="420" as="geometry" />
        </mxCell>
        <mxCell id="QFnC96fmeQrWTmHDwa4i-39" value="&lt;font style=&quot;font-size: 9px;&quot;&gt;1 : click(tournamentPage)&lt;/font&gt;" style="html=1;verticalAlign=bottom;endArrow=block;edgeStyle=elbowEdgeStyle;elbow=vertical;curved=0;rounded=0;" parent="1" source="QFnC96fmeQrWTmHDwa4i-38" target="QFnC96fmeQrWTmHDwa4i-31" edge="1">
          <mxGeometry relative="1" as="geometry">
            <mxPoint x="460" y="440" as="sourcePoint" />
            <Array as="points">
              <mxPoint x="540" y="440" />
            </Array>
            <mxPoint x="625" y="440" as="targetPoint" />
          </mxGeometry>
        </mxCell>
        <mxCell id="QFnC96fmeQrWTmHDwa4i-40" value="&lt;font style=&quot;font-size: 9px;&quot;&gt;2 : showPage(tournamentPage)&lt;/font&gt;" style="html=1;verticalAlign=bottom;endArrow=openThin;dashed=1;endSize=8;edgeStyle=elbowEdgeStyle;elbow=vertical;curved=0;rounded=0;endFill=0;" parent="1" source="QFnC96fmeQrWTmHDwa4i-31" target="QFnC96fmeQrWTmHDwa4i-38" edge="1">
          <mxGeometry relative="1" as="geometry">
            <mxPoint x="460" y="470" as="targetPoint" />
            <Array as="points">
              <mxPoint x="515" y="470" />
            </Array>
            <mxPoint x="590" y="470" as="sourcePoint" />
          </mxGeometry>
        </mxCell>
        <mxCell id="QFnC96fmeQrWTmHDwa4i-42" value="&lt;font style=&quot;font-size: 9px;&quot;&gt;7 : send(battleData)&lt;/font&gt;" style="html=1;verticalAlign=bottom;endArrow=block;edgeStyle=elbowEdgeStyle;elbow=vertical;curved=0;rounded=0;" parent="1" edge="1">
          <mxGeometry relative="1" as="geometry">
            <mxPoint x="424.9999999999998" y="630" as="sourcePoint" />
            <Array as="points">
              <mxPoint x="540" y="630" />
            </Array>
            <mxPoint x="615" y="630" as="targetPoint" />
          </mxGeometry>
        </mxCell>
        <mxCell id="QFnC96fmeQrWTmHDwa4i-43" value="&lt;font style=&quot;font-size: 9px;&quot;&gt;8 : displayOutcome(confirmation)&lt;/font&gt;" style="html=1;verticalAlign=bottom;endArrow=openThin;dashed=1;endSize=8;edgeStyle=elbowEdgeStyle;elbow=vertical;curved=0;rounded=0;endFill=0;" parent="1" edge="1">
          <mxGeometry relative="1" as="geometry">
            <mxPoint x="424.9999999999998" y="720" as="targetPoint" />
            <Array as="points">
              <mxPoint x="520" y="720" />
            </Array>
            <mxPoint x="615" y="720" as="sourcePoint" />
          </mxGeometry>
        </mxCell>
        <mxCell id="QFnC96fmeQrWTmHDwa4i-44" value="&lt;b&gt;alt &lt;/b&gt;outcome == true" style="shape=umlFrame;whiteSpace=wrap;html=1;pointerEvents=0;width=120;height=15;fontSize=11;" parent="1" vertex="1">
          <mxGeometry x="350" y="680" width="360" height="180" as="geometry" />
        </mxCell>
        <mxCell id="QFnC96fmeQrWTmHDwa4i-45" value="[then]" style="text;html=1;strokeColor=none;fillColor=none;align=center;verticalAlign=middle;whiteSpace=wrap;rounded=0;fontSize=10;" parent="1" vertex="1">
          <mxGeometry x="360" y="710" width="35" height="10" as="geometry" />
        </mxCell>
        <mxCell id="QFnC96fmeQrWTmHDwa4i-46" value="" style="endArrow=none;dashed=1;html=1;rounded=0;exitX=0.001;exitY=0.409;exitDx=0;exitDy=0;exitPerimeter=0;strokeWidth=2;" parent="1" edge="1">
          <mxGeometry width="50" height="50" relative="1" as="geometry">
            <mxPoint x="350" y="775.38" as="sourcePoint" />
            <mxPoint x="710" y="775" as="targetPoint" />
          </mxGeometry>
        </mxCell>
        <mxCell id="QFnC96fmeQrWTmHDwa4i-47" value="[else]" style="text;html=1;strokeColor=none;fillColor=none;align=center;verticalAlign=middle;whiteSpace=wrap;rounded=0;fontSize=10;" parent="1" vertex="1">
          <mxGeometry x="360" y="790" width="35" height="10" as="geometry" />
        </mxCell>
        <mxCell id="QFnC96fmeQrWTmHDwa4i-48" value="&lt;font style=&quot;font-size: 9px;&quot;&gt;11 : displayOutcome(error)&lt;/font&gt;" style="html=1;verticalAlign=bottom;endArrow=openThin;dashed=1;endSize=8;edgeStyle=elbowEdgeStyle;elbow=vertical;curved=0;rounded=0;endFill=0;" parent="1" edge="1" source="QFnC96fmeQrWTmHDwa4i-32">
          <mxGeometry relative="1" as="geometry">
            <mxPoint x="425" y="810" as="targetPoint" />
            <Array as="points">
              <mxPoint x="520" y="810" />
            </Array>
            <mxPoint x="610" y="810" as="sourcePoint" />
          </mxGeometry>
        </mxCell>
        <mxCell id="QFnC96fmeQrWTmHDwa4i-50" value="&lt;p style=&quot;line-height: 120%;&quot;&gt;&lt;font style=&quot;font-size: 10px;&quot;&gt;&lt;b&gt;loop&lt;/b&gt;: outcome == false&lt;/font&gt;&lt;/p&gt;" style="shape=umlFrame;whiteSpace=wrap;html=1;pointerEvents=0;width=70;height=40;verticalAlign=middle;horizontal=1;labelPosition=center;verticalLabelPosition=middle;align=center;" parent="1" vertex="1">
          <mxGeometry x="330" y="490" width="450" height="380" as="geometry" />
        </mxCell>
        <mxCell id="QFnC96fmeQrWTmHDwa4i-51" value="" style="html=1;points=[[0,0,0,0,5],[0,1,0,0,-5],[1,0,0,0,5],[1,1,0,0,-5]];perimeter=orthogonalPerimeter;outlineConnect=0;targetShapes=umlLifeline;portConstraint=eastwest;newEdgeStyle={&quot;curved&quot;:0,&quot;rounded&quot;:0};" parent="1" vertex="1">
          <mxGeometry x="615" y="510" width="10" height="20" as="geometry" />
        </mxCell>
        <mxCell id="QFnC96fmeQrWTmHDwa4i-55" value="&lt;font style=&quot;font-size: 9px;&quot;&gt;9 : click(continueButton)&lt;/font&gt;" style="html=1;verticalAlign=bottom;endArrow=block;edgeStyle=elbowEdgeStyle;elbow=vertical;curved=0;rounded=0;" parent="1" edge="1">
          <mxGeometry relative="1" as="geometry">
            <mxPoint x="425" y="740" as="sourcePoint" />
            <Array as="points">
              <mxPoint x="540" y="740" />
            </Array>
            <mxPoint x="615" y="740" as="targetPoint" />
          </mxGeometry>
        </mxCell>
        <mxCell id="QFnC96fmeQrWTmHDwa4i-56" value="&lt;font style=&quot;font-size: 9px;&quot;&gt;10 : showPage(battleCreationPage)&lt;/font&gt;" style="html=1;verticalAlign=bottom;endArrow=openThin;dashed=1;endSize=8;edgeStyle=elbowEdgeStyle;elbow=vertical;curved=0;rounded=0;endFill=0;" parent="1" edge="1" source="QFnC96fmeQrWTmHDwa4i-32">
          <mxGeometry relative="1" as="geometry">
            <mxPoint x="425" y="760" as="targetPoint" />
            <Array as="points">
              <mxPoint x="520" y="760" />
            </Array>
            <mxPoint x="610" y="760" as="sourcePoint" />
          </mxGeometry>
        </mxCell>
        <mxCell id="QFnC96fmeQrWTmHDwa4i-57" value="&lt;font style=&quot;font-size: 9px;&quot;&gt;12 : click(continueButton)&lt;/font&gt;" style="html=1;verticalAlign=bottom;endArrow=block;edgeStyle=elbowEdgeStyle;elbow=vertical;curved=0;rounded=0;" parent="1" edge="1">
          <mxGeometry relative="1" as="geometry">
            <mxPoint x="425" y="830" as="sourcePoint" />
            <Array as="points">
              <mxPoint x="540" y="830" />
            </Array>
            <mxPoint x="615" y="829.9999999999998" as="targetPoint" />
          </mxGeometry>
        </mxCell>
        <mxCell id="QFnC96fmeQrWTmHDwa4i-58" value="&lt;font style=&quot;font-size: 9px;&quot;&gt;13 : showPage(&lt;/font&gt;&lt;font style=&quot;font-size: 9px;&quot;&gt;battleCreationPage&lt;/font&gt;&lt;font style=&quot;font-size: 9px;&quot;&gt;)&lt;/font&gt;" style="html=1;verticalAlign=bottom;endArrow=openThin;dashed=1;endSize=8;edgeStyle=elbowEdgeStyle;elbow=vertical;curved=0;rounded=0;endFill=0;" parent="1" edge="1" source="QFnC96fmeQrWTmHDwa4i-32">
          <mxGeometry relative="1" as="geometry">
            <mxPoint x="425" y="850" as="targetPoint" />
            <Array as="points">
              <mxPoint x="520" y="850" />
            </Array>
            <mxPoint x="615" y="829.9999999999998" as="sourcePoint" />
          </mxGeometry>
        </mxCell>
        <mxCell id="QFnC96fmeQrWTmHDwa4i-95" value="&lt;font style=&quot;font-size: 9px;&quot;&gt;3 : click(newBattleButton)&lt;/font&gt;" style="html=1;verticalAlign=bottom;endArrow=block;edgeStyle=elbowEdgeStyle;elbow=vertical;curved=0;rounded=0;" parent="1" edge="1">
          <mxGeometry relative="1" as="geometry">
            <mxPoint x="425" y="510" as="sourcePoint" />
            <Array as="points">
              <mxPoint x="540" y="510" />
            </Array>
            <mxPoint x="615" y="510" as="targetPoint" />
          </mxGeometry>
        </mxCell>
        <mxCell id="QFnC96fmeQrWTmHDwa4i-97" value="&lt;font style=&quot;font-size: 9px;&quot;&gt;4 : showPage(newBattlePage)&lt;/font&gt;" style="html=1;verticalAlign=bottom;endArrow=openThin;dashed=1;endSize=8;edgeStyle=elbowEdgeStyle;elbow=vertical;curved=0;rounded=0;endFill=0;" parent="1" edge="1">
          <mxGeometry relative="1" as="geometry">
            <mxPoint x="425" y="530" as="targetPoint" />
            <Array as="points">
              <mxPoint x="515" y="530" />
            </Array>
            <mxPoint x="615" y="530" as="sourcePoint" />
          </mxGeometry>
        </mxCell>
        <mxCell id="QFnC96fmeQrWTmHDwa4i-101" value="" style="html=1;points=[[0,0,0,0,5],[0,1,0,0,-5],[1,0,0,0,5],[1,1,0,0,-5]];perimeter=orthogonalPerimeter;outlineConnect=0;targetShapes=umlLifeline;portConstraint=eastwest;newEdgeStyle={&quot;curved&quot;:0,&quot;rounded&quot;:0};" parent="1" vertex="1">
          <mxGeometry x="420" y="549.97" width="10" height="20" as="geometry" />
        </mxCell>
        <mxCell id="QFnC96fmeQrWTmHDwa4i-102" value="&lt;font style=&quot;font-size: 9px;&quot;&gt;&amp;nbsp;5 : fillUpForm&lt;/font&gt;&lt;font style=&quot;font-size: 9px;&quot;&gt;(battleData)&lt;/font&gt;" style="html=1;align=left;spacingLeft=2;endArrow=block;rounded=0;edgeStyle=orthogonalEdgeStyle;curved=0;rounded=0;" parent="1" target="QFnC96fmeQrWTmHDwa4i-101" edge="1">
          <mxGeometry relative="1" as="geometry">
            <mxPoint x="425" y="540.0044827586208" as="sourcePoint" />
            <Array as="points">
              <mxPoint x="450" y="539.97" />
              <mxPoint x="450" y="549.97" />
            </Array>
            <mxPoint x="425.0000000000001" y="519.97" as="targetPoint" />
          </mxGeometry>
        </mxCell>
        <mxCell id="QFnC96fmeQrWTmHDwa4i-105" value="" style="html=1;points=[[0,0,0,0,5],[0,1,0,0,-5],[1,0,0,0,5],[1,1,0,0,-5]];perimeter=orthogonalPerimeter;outlineConnect=0;targetShapes=umlLifeline;portConstraint=eastwest;newEdgeStyle={&quot;curved&quot;:0,&quot;rounded&quot;:0};" parent="1" vertex="1">
          <mxGeometry x="420" y="589.97" width="10" height="20" as="geometry" />
        </mxCell>
        <mxCell id="QFnC96fmeQrWTmHDwa4i-106" value="&lt;font style=&quot;font-size: 9px;&quot;&gt;&amp;nbsp;6 : click&lt;/font&gt;&lt;font style=&quot;font-size: 9px;&quot;&gt;(confirmButton)&lt;/font&gt;" style="html=1;align=left;spacingLeft=2;endArrow=block;rounded=0;edgeStyle=orthogonalEdgeStyle;curved=0;rounded=0;" parent="1" target="QFnC96fmeQrWTmHDwa4i-105" edge="1">
          <mxGeometry relative="1" as="geometry">
            <mxPoint x="425" y="580.0044827586208" as="sourcePoint" />
            <Array as="points">
              <mxPoint x="450" y="579.97" />
              <mxPoint x="450" y="589.97" />
            </Array>
            <mxPoint x="425.0000000000001" y="559.97" as="targetPoint" />
          </mxGeometry>
        </mxCell>
      </root>
    </mxGraphModel>
  </diagram>
</mxfile>
